<?xml version="1.0" encoding="UTF-8" standalone="no"?>
<!DOCTYPE svg PUBLIC "-//W3C//DTD SVG 1.1//EN"
 "http://www.w3.org/Graphics/SVG/1.1/DTD/svg11.dtd">
<!-- Generated by graphviz version 2.38.0 (20140413.2041)
 -->
<!-- Title: snakemake_dag Pages: 1 -->
<svg width="694pt" height="260pt"
 viewBox="0.00 0.00 694.00 260.00" xmlns="http://www.w3.org/2000/svg" xmlns:xlink="http://www.w3.org/1999/xlink">
<g id="graph0" class="graph" transform="scale(1 1) rotate(0) translate(4 256)">
<title>snakemake_dag</title>
<polygon fill="white" stroke="none" points="-4,4 -4,-256 690,-256 690,4 -4,4"/>
<!-- 0 -->
<g id="node1" class="node"><title>0</title>
<path fill="none" stroke="#d85656" stroke-width="2" d="M370.5,-36C370.5,-36 313.5,-36 313.5,-36 307.5,-36 301.5,-30 301.5,-24 301.5,-24 301.5,-12 301.5,-12 301.5,-6 307.5,-0 313.5,-0 313.5,-0 370.5,-0 370.5,-0 376.5,-0 382.5,-6 382.5,-12 382.5,-12 382.5,-24 382.5,-24 382.5,-30 376.5,-36 370.5,-36"/>
<text text-anchor="middle" x="342" y="-15.5" font-family="sans" font-size="10.00">DEG_analysis</text>
</g>
<!-- 1 -->
<g id="node2" class="node"><title>1</title>
<path fill="none" stroke="#59d856" stroke-width="2" d="M183,-108C183,-108 149,-108 149,-108 143,-108 137,-102 137,-96 137,-96 137,-84 137,-84 137,-78 143,-72 149,-72 149,-72 183,-72 183,-72 189,-72 195,-78 195,-84 195,-84 195,-96 195,-96 195,-102 189,-108 183,-108"/>
<text text-anchor="middle" x="166" y="-87.5" font-family="sans" font-size="10.00">counting</text>
</g>
<!-- 1&#45;&gt;0 -->
<g id="edge2" class="edge"><title>1&#45;&gt;0</title>
<path fill="none" stroke="grey" stroke-width="2" d="M195.063,-77.4409C221.342,-66.9891 260.598,-51.3757 291.925,-38.916"/>
<polygon fill="grey" stroke="grey" stroke-width="2" points="293.371,-42.1076 301.37,-35.1597 290.784,-35.6032 293.371,-42.1076"/>
</g>
<!-- 2 -->
<g id="node3" class="node"><title>2</title>
<path fill="none" stroke="#d6d856" stroke-width="2" d="M127.5,-180C127.5,-180 92.5,-180 92.5,-180 86.5,-180 80.5,-174 80.5,-168 80.5,-168 80.5,-156 80.5,-156 80.5,-150 86.5,-144 92.5,-144 92.5,-144 127.5,-144 127.5,-144 133.5,-144 139.5,-150 139.5,-156 139.5,-156 139.5,-168 139.5,-168 139.5,-174 133.5,-180 127.5,-180"/>
<text text-anchor="middle" x="110" y="-159.5" font-family="sans" font-size="10.00">mapping</text>
</g>
<!-- 2&#45;&gt;1 -->
<g id="edge5" class="edge"><title>2&#45;&gt;1</title>
<path fill="none" stroke="grey" stroke-width="2" d="M123.843,-143.697C130.489,-135.389 138.578,-125.277 145.887,-116.141"/>
<polygon fill="grey" stroke="grey" stroke-width="2" points="148.803,-118.099 152.317,-108.104 143.336,-113.727 148.803,-118.099"/>
</g>
<!-- 3 -->
<g id="node4" class="node"><title>3</title>
<path fill="none" stroke="#d6d856" stroke-width="2" stroke-dasharray="5,2" d="M297.5,-180C297.5,-180 262.5,-180 262.5,-180 256.5,-180 250.5,-174 250.5,-168 250.5,-168 250.5,-156 250.5,-156 250.5,-150 256.5,-144 262.5,-144 262.5,-144 297.5,-144 297.5,-144 303.5,-144 309.5,-150 309.5,-156 309.5,-156 309.5,-168 309.5,-168 309.5,-174 303.5,-180 297.5,-180"/>
<text text-anchor="middle" x="280" y="-159.5" font-family="sans" font-size="10.00">mapping</text>
</g>
<!-- 4 -->
<g id="node5" class="node"><title>4</title>
<path fill="none" stroke="#59d856" stroke-width="2" stroke-dasharray="5,2" d="M309,-108C309,-108 275,-108 275,-108 269,-108 263,-102 263,-96 263,-96 263,-84 263,-84 263,-78 269,-72 275,-72 275,-72 309,-72 309,-72 315,-72 321,-78 321,-84 321,-84 321,-96 321,-96 321,-102 315,-108 309,-108"/>
<text text-anchor="middle" x="292" y="-87.5" font-family="sans" font-size="10.00">counting</text>
</g>
<!-- 3&#45;&gt;4 -->
<g id="edge8" class="edge"><title>3&#45;&gt;4</title>
<path fill="none" stroke="grey" stroke-width="2" d="M282.966,-143.697C284.289,-135.983 285.878,-126.712 287.352,-118.112"/>
<polygon fill="grey" stroke="grey" stroke-width="2" points="290.828,-118.552 289.068,-108.104 283.928,-117.369 290.828,-118.552"/>
</g>
<!-- 4&#45;&gt;0 -->
<g id="edge1" class="edge"><title>4&#45;&gt;0</title>
<path fill="none" stroke="grey" stroke-width="2" d="M304.36,-71.6966C310.233,-63.4741 317.369,-53.4832 323.842,-44.4207"/>
<polygon fill="grey" stroke="grey" stroke-width="2" points="326.818,-46.276 329.783,-36.1043 321.122,-42.2073 326.818,-46.276"/>
</g>
<!-- 5 -->
<g id="node6" class="node"><title>5</title>
<path fill="none" stroke="#56d8d8" stroke-width="2" d="M146,-252C146,-252 12,-252 12,-252 6,-252 1.42109e-14,-246 1.42109e-14,-240 1.42109e-14,-240 1.42109e-14,-228 1.42109e-14,-228 1.42109e-14,-222 6,-216 12,-216 12,-216 146,-216 146,-216 152,-216 158,-222 158,-228 158,-228 158,-240 158,-240 158,-246 152,-252 146,-252"/>
<text text-anchor="middle" x="79" y="-237" font-family="sans" font-size="10.00">quality_control_and_trimming</text>
<text text-anchor="middle" x="79" y="-226" font-family="sans" font-size="10.00">sample: SRR3199338</text>
</g>
<!-- 5&#45;&gt;2 -->
<g id="edge6" class="edge"><title>5&#45;&gt;2</title>
<path fill="none" stroke="grey" stroke-width="2" d="M86.6629,-215.697C90.1917,-207.728 94.4559,-198.1 98.3687,-189.264"/>
<polygon fill="grey" stroke="grey" stroke-width="2" points="101.576,-190.665 102.425,-180.104 95.1757,-187.831 101.576,-190.665"/>
</g>
<!-- 6 -->
<g id="node7" class="node"><title>6</title>
<path fill="none" stroke="#56d8d8" stroke-width="2" stroke-dasharray="5,2" d="M322,-252C322,-252 188,-252 188,-252 182,-252 176,-246 176,-240 176,-240 176,-228 176,-228 176,-222 182,-216 188,-216 188,-216 322,-216 322,-216 328,-216 334,-222 334,-228 334,-228 334,-240 334,-240 334,-246 328,-252 322,-252"/>
<text text-anchor="middle" x="255" y="-237" font-family="sans" font-size="10.00">quality_control_and_trimming</text>
<text text-anchor="middle" x="255" y="-226" font-family="sans" font-size="10.00">sample: SRR3199341</text>
</g>
<!-- 6&#45;&gt;3 -->
<g id="edge7" class="edge"><title>6&#45;&gt;3</title>
<path fill="none" stroke="grey" stroke-width="2" d="M261.18,-215.697C263.995,-207.813 267.391,-198.304 270.519,-189.546"/>
<polygon fill="grey" stroke="grey" stroke-width="2" points="273.824,-190.699 273.891,-180.104 267.232,-188.345 273.824,-190.699"/>
</g>
<!-- 7 -->
<g id="node8" class="node"><title>7</title>
<path fill="none" stroke="#59d856" stroke-width="2" stroke-dasharray="5,2" d="M410,-108C410,-108 376,-108 376,-108 370,-108 364,-102 364,-96 364,-96 364,-84 364,-84 364,-78 370,-72 376,-72 376,-72 410,-72 410,-72 416,-72 422,-78 422,-84 422,-84 422,-96 422,-96 422,-102 416,-108 410,-108"/>
<text text-anchor="middle" x="393" y="-87.5" font-family="sans" font-size="10.00">counting</text>
</g>
<!-- 7&#45;&gt;0 -->
<g id="edge3" class="edge"><title>7&#45;&gt;0</title>
<path fill="none" stroke="grey" stroke-width="2" d="M380.393,-71.6966C374.403,-63.4741 367.124,-53.4832 360.521,-44.4207"/>
<polygon fill="grey" stroke="grey" stroke-width="2" points="363.179,-42.1257 354.462,-36.1043 357.522,-46.2477 363.179,-42.1257"/>
</g>
<!-- 8 -->
<g id="node9" class="node"><title>8</title>
<path fill="none" stroke="#56d8d8" stroke-width="2" stroke-dasharray="5,2" d="M674,-252C674,-252 540,-252 540,-252 534,-252 528,-246 528,-240 528,-240 528,-228 528,-228 528,-222 534,-216 540,-216 540,-216 674,-216 674,-216 680,-216 686,-222 686,-228 686,-228 686,-240 686,-240 686,-246 680,-252 674,-252"/>
<text text-anchor="middle" x="607" y="-237" font-family="sans" font-size="10.00">quality_control_and_trimming</text>
<text text-anchor="middle" x="607" y="-226" font-family="sans" font-size="10.00">sample: SRR3199340</text>
</g>
<!-- 11 -->
<g id="node12" class="node"><title>11</title>
<path fill="none" stroke="#d6d856" stroke-width="2" stroke-dasharray="5,2" d="M599.5,-180C599.5,-180 564.5,-180 564.5,-180 558.5,-180 552.5,-174 552.5,-168 552.5,-168 552.5,-156 552.5,-156 552.5,-150 558.5,-144 564.5,-144 564.5,-144 599.5,-144 599.5,-144 605.5,-144 611.5,-150 611.5,-156 611.5,-156 611.5,-168 611.5,-168 611.5,-174 605.5,-180 599.5,-180"/>
<text text-anchor="middle" x="582" y="-159.5" font-family="sans" font-size="10.00">mapping</text>
</g>
<!-- 8&#45;&gt;11 -->
<g id="edge11" class="edge"><title>8&#45;&gt;11</title>
<path fill="none" stroke="grey" stroke-width="2" d="M600.82,-215.697C598.005,-207.813 594.609,-198.304 591.481,-189.546"/>
<polygon fill="grey" stroke="grey" stroke-width="2" points="594.768,-188.345 588.109,-180.104 588.176,-190.699 594.768,-188.345"/>
</g>
<!-- 9 -->
<g id="node10" class="node"><title>9</title>
<path fill="none" stroke="#56d8d8" stroke-width="2" stroke-dasharray="5,2" d="M498,-252C498,-252 364,-252 364,-252 358,-252 352,-246 352,-240 352,-240 352,-228 352,-228 352,-222 358,-216 364,-216 364,-216 498,-216 498,-216 504,-216 510,-222 510,-228 510,-228 510,-240 510,-240 510,-246 504,-252 498,-252"/>
<text text-anchor="middle" x="431" y="-237" font-family="sans" font-size="10.00">quality_control_and_trimming</text>
<text text-anchor="middle" x="431" y="-226" font-family="sans" font-size="10.00">sample: SRR3199339</text>
</g>
<!-- 12 -->
<g id="node13" class="node"><title>12</title>
<path fill="none" stroke="#d6d856" stroke-width="2" stroke-dasharray="5,2" d="M423.5,-180C423.5,-180 388.5,-180 388.5,-180 382.5,-180 376.5,-174 376.5,-168 376.5,-168 376.5,-156 376.5,-156 376.5,-150 382.5,-144 388.5,-144 388.5,-144 423.5,-144 423.5,-144 429.5,-144 435.5,-150 435.5,-156 435.5,-156 435.5,-168 435.5,-168 435.5,-174 429.5,-180 423.5,-180"/>
<text text-anchor="middle" x="406" y="-159.5" font-family="sans" font-size="10.00">mapping</text>
</g>
<!-- 9&#45;&gt;12 -->
<g id="edge12" class="edge"><title>9&#45;&gt;12</title>
<path fill="none" stroke="grey" stroke-width="2" d="M424.82,-215.697C422.005,-207.813 418.609,-198.304 415.481,-189.546"/>
<polygon fill="grey" stroke="grey" stroke-width="2" points="418.768,-188.345 412.109,-180.104 412.176,-190.699 418.768,-188.345"/>
</g>
<!-- 10 -->
<g id="node11" class="node"><title>10</title>
<path fill="none" stroke="#59d856" stroke-width="2" stroke-dasharray="5,2" d="M548,-108C548,-108 514,-108 514,-108 508,-108 502,-102 502,-96 502,-96 502,-84 502,-84 502,-78 508,-72 514,-72 514,-72 548,-72 548,-72 554,-72 560,-78 560,-84 560,-84 560,-96 560,-96 560,-102 554,-108 548,-108"/>
<text text-anchor="middle" x="531" y="-87.5" font-family="sans" font-size="10.00">counting</text>
</g>
<!-- 10&#45;&gt;0 -->
<g id="edge4" class="edge"><title>10&#45;&gt;0</title>
<path fill="none" stroke="grey" stroke-width="2" d="M501.883,-78.2159C472.731,-67.419 427.298,-50.5917 392.302,-37.6303"/>
<polygon fill="grey" stroke="grey" stroke-width="2" points="393.323,-34.2764 382.73,-34.0853 390.892,-40.8406 393.323,-34.2764"/>
</g>
<!-- 11&#45;&gt;10 -->
<g id="edge10" class="edge"><title>11&#45;&gt;10</title>
<path fill="none" stroke="grey" stroke-width="2" d="M569.393,-143.697C563.403,-135.474 556.124,-125.483 549.521,-116.421"/>
<polygon fill="grey" stroke="grey" stroke-width="2" points="552.179,-114.126 543.462,-108.104 546.522,-118.248 552.179,-114.126"/>
</g>
<!-- 12&#45;&gt;7 -->
<g id="edge9" class="edge"><title>12&#45;&gt;7</title>
<path fill="none" stroke="grey" stroke-width="2" d="M402.787,-143.697C401.354,-135.983 399.632,-126.712 398.035,-118.112"/>
<polygon fill="grey" stroke="grey" stroke-width="2" points="401.444,-117.297 396.177,-108.104 394.561,-118.575 401.444,-117.297"/>
</g>
</g>
</svg>
