<?xml version="1.0" encoding="UTF-8" standalone="no"?>
<!DOCTYPE svg PUBLIC "-//W3C//DTD SVG 1.1//EN"
 "http://www.w3.org/Graphics/SVG/1.1/DTD/svg11.dtd">
<!-- Generated by graphviz version 2.40.1 (20161225.0304)
 -->
<!-- Title: snakemake_dag Pages: 1 -->
<svg width="714pt" height="260pt"
 viewBox="0.00 0.00 714.00 260.00" xmlns="http://www.w3.org/2000/svg" xmlns:xlink="http://www.w3.org/1999/xlink">
<g id="graph0" class="graph" transform="scale(1 1) rotate(0) translate(4 256)">
<title>snakemake_dag</title>
<polygon fill="#ffffff" stroke="transparent" points="-4,4 -4,-256 710,-256 710,4 -4,4"/>
<!-- 0 -->
<g id="node1" class="node">
<title>0</title>
<path fill="none" stroke="#56d8d8" stroke-width="2" d="M356,-36C356,-36 297,-36 297,-36 291,-36 285,-30 285,-24 285,-24 285,-12 285,-12 285,-6 291,0 297,0 297,0 356,0 356,0 362,0 368,-6 368,-12 368,-12 368,-24 368,-24 368,-30 362,-36 356,-36"/>
<text text-anchor="middle" x="326.5" y="-15.5" font-family="sans" font-size="10.00" fill="#000000">DEG_analysis</text>
</g>
<!-- 1 -->
<g id="node2" class="node">
<title>1</title>
<path fill="none" stroke="#59d856" stroke-width="2" stroke-dasharray="5,2" d="M177,-108C177,-108 142,-108 142,-108 136,-108 130,-102 130,-96 130,-96 130,-84 130,-84 130,-78 136,-72 142,-72 142,-72 177,-72 177,-72 183,-72 189,-78 189,-84 189,-84 189,-96 189,-96 189,-102 183,-108 177,-108"/>
<text text-anchor="middle" x="159.5" y="-87.5" font-family="sans" font-size="10.00" fill="#000000">counting</text>
</g>
<!-- 1&#45;&gt;0 -->
<g id="edge1" class="edge">
<title>1&#45;&gt;0</title>
<path fill="none" stroke="#c0c0c0" stroke-width="2" d="M189.3563,-77.1278C213.2947,-66.8071 247.4339,-52.0884 275.6615,-39.9184"/>
<polygon fill="#c0c0c0" stroke="#c0c0c0" stroke-width="2" points="277.1872,-43.0721 284.9844,-35.8989 274.4158,-36.6441 277.1872,-43.0721"/>
</g>
<!-- 2 -->
<g id="node3" class="node">
<title>2</title>
<path fill="none" stroke="#59d856" stroke-width="2" stroke-dasharray="5,2" d="M306,-108C306,-108 271,-108 271,-108 265,-108 259,-102 259,-96 259,-96 259,-84 259,-84 259,-78 265,-72 271,-72 271,-72 306,-72 306,-72 312,-72 318,-78 318,-84 318,-84 318,-96 318,-96 318,-102 312,-108 306,-108"/>
<text text-anchor="middle" x="288.5" y="-87.5" font-family="sans" font-size="10.00" fill="#000000">counting</text>
</g>
<!-- 2&#45;&gt;0 -->
<g id="edge2" class="edge">
<title>2&#45;&gt;0</title>
<path fill="none" stroke="#c0c0c0" stroke-width="2" d="M298.089,-71.8314C302.3317,-63.7925 307.4121,-54.1666 312.096,-45.2918"/>
<polygon fill="#c0c0c0" stroke="#c0c0c0" stroke-width="2" points="315.2096,-46.8908 316.7819,-36.4133 309.0189,-43.6235 315.2096,-46.8908"/>
</g>
<!-- 3 -->
<g id="node4" class="node">
<title>3</title>
<path fill="none" stroke="#59d856" stroke-width="2" stroke-dasharray="5,2" d="M383,-108C383,-108 348,-108 348,-108 342,-108 336,-102 336,-96 336,-96 336,-84 336,-84 336,-78 342,-72 348,-72 348,-72 383,-72 383,-72 389,-72 395,-78 395,-84 395,-84 395,-96 395,-96 395,-102 389,-108 383,-108"/>
<text text-anchor="middle" x="365.5" y="-87.5" font-family="sans" font-size="10.00" fill="#000000">counting</text>
</g>
<!-- 3&#45;&gt;0 -->
<g id="edge3" class="edge">
<title>3&#45;&gt;0</title>
<path fill="none" stroke="#c0c0c0" stroke-width="2" d="M355.6587,-71.8314C351.3043,-63.7925 346.0902,-54.1666 341.2831,-45.2918"/>
<polygon fill="#c0c0c0" stroke="#c0c0c0" stroke-width="2" points="344.3143,-43.5392 336.4739,-36.4133 338.1592,-46.8732 344.3143,-43.5392"/>
</g>
<!-- 4 -->
<g id="node5" class="node">
<title>4</title>
<path fill="none" stroke="#59d856" stroke-width="2" d="M512,-108C512,-108 477,-108 477,-108 471,-108 465,-102 465,-96 465,-96 465,-84 465,-84 465,-78 471,-72 477,-72 477,-72 512,-72 512,-72 518,-72 524,-78 524,-84 524,-84 524,-96 524,-96 524,-102 518,-108 512,-108"/>
<text text-anchor="middle" x="494.5" y="-87.5" font-family="sans" font-size="10.00" fill="#000000">counting</text>
</g>
<!-- 4&#45;&gt;0 -->
<g id="edge4" class="edge">
<title>4&#45;&gt;0</title>
<path fill="none" stroke="#c0c0c0" stroke-width="2" d="M464.8517,-77.2936C440.7318,-66.9565 406.1343,-52.129 377.5715,-39.8878"/>
<polygon fill="#c0c0c0" stroke="#c0c0c0" stroke-width="2" points="378.7104,-36.568 368.1402,-35.8458 375.9529,-43.0021 378.7104,-36.568"/>
</g>
<!-- 5 -->
<g id="node6" class="node">
<title>5</title>
<path fill="none" stroke="#d85656" stroke-width="2" stroke-dasharray="5,2" d="M125,-180C125,-180 90,-180 90,-180 84,-180 78,-174 78,-168 78,-168 78,-156 78,-156 78,-150 84,-144 90,-144 90,-144 125,-144 125,-144 131,-144 137,-150 137,-156 137,-156 137,-168 137,-168 137,-174 131,-180 125,-180"/>
<text text-anchor="middle" x="107.5" y="-159.5" font-family="sans" font-size="10.00" fill="#000000">mapping</text>
</g>
<!-- 5&#45;&gt;1 -->
<g id="edge5" class="edge">
<title>5&#45;&gt;1</title>
<path fill="none" stroke="#c0c0c0" stroke-width="2" d="M120.6218,-143.8314C126.5499,-135.6232 133.6729,-125.7606 140.1933,-116.7323"/>
<polygon fill="#c0c0c0" stroke="#c0c0c0" stroke-width="2" points="143.184,-118.5693 146.2015,-108.4133 137.5092,-114.4708 143.184,-118.5693"/>
</g>
<!-- 6 -->
<g id="node7" class="node">
<title>6</title>
<path fill="none" stroke="#d85656" stroke-width="2" stroke-dasharray="5,2" d="M306,-180C306,-180 271,-180 271,-180 265,-180 259,-174 259,-168 259,-168 259,-156 259,-156 259,-150 265,-144 271,-144 271,-144 306,-144 306,-144 312,-144 318,-150 318,-156 318,-156 318,-168 318,-168 318,-174 312,-180 306,-180"/>
<text text-anchor="middle" x="288.5" y="-159.5" font-family="sans" font-size="10.00" fill="#000000">mapping</text>
</g>
<!-- 6&#45;&gt;2 -->
<g id="edge6" class="edge">
<title>6&#45;&gt;2</title>
<path fill="none" stroke="#c0c0c0" stroke-width="2" d="M288.5,-143.8314C288.5,-136.131 288.5,-126.9743 288.5,-118.4166"/>
<polygon fill="#c0c0c0" stroke="#c0c0c0" stroke-width="2" points="292.0001,-118.4132 288.5,-108.4133 285.0001,-118.4133 292.0001,-118.4132"/>
</g>
<!-- 7 -->
<g id="node8" class="node">
<title>7</title>
<path fill="none" stroke="#d85656" stroke-width="2" stroke-dasharray="5,2" d="M383,-180C383,-180 348,-180 348,-180 342,-180 336,-174 336,-168 336,-168 336,-156 336,-156 336,-150 342,-144 348,-144 348,-144 383,-144 383,-144 389,-144 395,-150 395,-156 395,-156 395,-168 395,-168 395,-174 389,-180 383,-180"/>
<text text-anchor="middle" x="365.5" y="-159.5" font-family="sans" font-size="10.00" fill="#000000">mapping</text>
</g>
<!-- 7&#45;&gt;3 -->
<g id="edge7" class="edge">
<title>7&#45;&gt;3</title>
<path fill="none" stroke="#c0c0c0" stroke-width="2" d="M365.5,-143.8314C365.5,-136.131 365.5,-126.9743 365.5,-118.4166"/>
<polygon fill="#c0c0c0" stroke="#c0c0c0" stroke-width="2" points="369.0001,-118.4132 365.5,-108.4133 362.0001,-118.4133 369.0001,-118.4132"/>
</g>
<!-- 8 -->
<g id="node9" class="node">
<title>8</title>
<path fill="none" stroke="#d85656" stroke-width="2" d="M616,-180C616,-180 581,-180 581,-180 575,-180 569,-174 569,-168 569,-168 569,-156 569,-156 569,-150 575,-144 581,-144 581,-144 616,-144 616,-144 622,-144 628,-150 628,-156 628,-156 628,-168 628,-168 628,-174 622,-180 616,-180"/>
<text text-anchor="middle" x="598.5" y="-159.5" font-family="sans" font-size="10.00" fill="#000000">mapping</text>
</g>
<!-- 8&#45;&gt;4 -->
<g id="edge8" class="edge">
<title>8&#45;&gt;4</title>
<path fill="none" stroke="#c0c0c0" stroke-width="2" d="M572.2564,-143.8314C559.2005,-134.7927 543.2465,-123.7476 529.1953,-114.0198"/>
<polygon fill="#c0c0c0" stroke="#c0c0c0" stroke-width="2" points="530.9494,-110.9773 520.7352,-108.1628 526.9649,-116.7326 530.9494,-110.9773"/>
</g>
<!-- 9 -->
<g id="node10" class="node">
<title>9</title>
<path fill="none" stroke="#d6d856" stroke-width="2" stroke-dasharray="5,2" d="M151,-252C151,-252 12,-252 12,-252 6,-252 0,-246 0,-240 0,-240 0,-228 0,-228 0,-222 6,-216 12,-216 12,-216 151,-216 151,-216 157,-216 163,-222 163,-228 163,-228 163,-240 163,-240 163,-246 157,-252 151,-252"/>
<text text-anchor="middle" x="81.5" y="-237" font-family="sans" font-size="10.00" fill="#000000">quality_control_and_trimming</text>
<text text-anchor="middle" x="81.5" y="-226" font-family="sans" font-size="10.00" fill="#000000">sample: SRR3199341</text>
</g>
<!-- 9&#45;&gt;5 -->
<g id="edge9" class="edge">
<title>9&#45;&gt;5</title>
<path fill="none" stroke="#c0c0c0" stroke-width="2" d="M88.0609,-215.8314C90.9027,-207.9617 94.2937,-198.5712 97.4419,-189.8533"/>
<polygon fill="#c0c0c0" stroke="#c0c0c0" stroke-width="2" points="100.7462,-191.0076 100.8508,-180.4133 94.1623,-188.63 100.7462,-191.0076"/>
</g>
<!-- 10 -->
<g id="node11" class="node">
<title>10</title>
<path fill="none" stroke="#d6d856" stroke-width="2" stroke-dasharray="5,2" d="M332,-252C332,-252 193,-252 193,-252 187,-252 181,-246 181,-240 181,-240 181,-228 181,-228 181,-222 187,-216 193,-216 193,-216 332,-216 332,-216 338,-216 344,-222 344,-228 344,-228 344,-240 344,-240 344,-246 338,-252 332,-252"/>
<text text-anchor="middle" x="262.5" y="-237" font-family="sans" font-size="10.00" fill="#000000">quality_control_and_trimming</text>
<text text-anchor="middle" x="262.5" y="-226" font-family="sans" font-size="10.00" fill="#000000">sample: SRR3199339</text>
</g>
<!-- 10&#45;&gt;6 -->
<g id="edge10" class="edge">
<title>10&#45;&gt;6</title>
<path fill="none" stroke="#c0c0c0" stroke-width="2" d="M269.0609,-215.8314C271.9027,-207.9617 275.2937,-198.5712 278.4419,-189.8533"/>
<polygon fill="#c0c0c0" stroke="#c0c0c0" stroke-width="2" points="281.7462,-191.0076 281.8508,-180.4133 275.1623,-188.63 281.7462,-191.0076"/>
</g>
<!-- 11 -->
<g id="node12" class="node">
<title>11</title>
<path fill="none" stroke="#d6d856" stroke-width="2" stroke-dasharray="5,2" d="M513,-252C513,-252 374,-252 374,-252 368,-252 362,-246 362,-240 362,-240 362,-228 362,-228 362,-222 368,-216 374,-216 374,-216 513,-216 513,-216 519,-216 525,-222 525,-228 525,-228 525,-240 525,-240 525,-246 519,-252 513,-252"/>
<text text-anchor="middle" x="443.5" y="-237" font-family="sans" font-size="10.00" fill="#000000">quality_control_and_trimming</text>
<text text-anchor="middle" x="443.5" y="-226" font-family="sans" font-size="10.00" fill="#000000">sample: SRR3199340</text>
</g>
<!-- 11&#45;&gt;7 -->
<g id="edge11" class="edge">
<title>11&#45;&gt;7</title>
<path fill="none" stroke="#c0c0c0" stroke-width="2" d="M423.8173,-215.8314C414.3949,-207.1337 402.9599,-196.5783 392.7204,-187.1265"/>
<polygon fill="#c0c0c0" stroke="#c0c0c0" stroke-width="2" points="394.8984,-184.3738 385.1764,-180.1628 390.1505,-189.5175 394.8984,-184.3738"/>
</g>
<!-- 12 -->
<g id="node13" class="node">
<title>12</title>
<path fill="none" stroke="#d6d856" stroke-width="2" d="M694,-252C694,-252 555,-252 555,-252 549,-252 543,-246 543,-240 543,-240 543,-228 543,-228 543,-222 549,-216 555,-216 555,-216 694,-216 694,-216 700,-216 706,-222 706,-228 706,-228 706,-240 706,-240 706,-246 700,-252 694,-252"/>
<text text-anchor="middle" x="624.5" y="-237" font-family="sans" font-size="10.00" fill="#000000">quality_control_and_trimming</text>
<text text-anchor="middle" x="624.5" y="-226" font-family="sans" font-size="10.00" fill="#000000">sample: SRR3199338</text>
</g>
<!-- 12&#45;&gt;8 -->
<g id="edge12" class="edge">
<title>12&#45;&gt;8</title>
<path fill="none" stroke="#c0c0c0" stroke-width="2" d="M617.9391,-215.8314C615.0973,-207.9617 611.7063,-198.5712 608.5581,-189.8533"/>
<polygon fill="#c0c0c0" stroke="#c0c0c0" stroke-width="2" points="611.8377,-188.63 605.1492,-180.4133 605.2538,-191.0076 611.8377,-188.63"/>
</g>
</g>
</svg>
